<svg width="1440" height="757" viewBox="0 0 1440 757" fill="none" xmlns="http://www.w3.org/2000/svg">
<path d="M1007.35 226.759C953.333 252.376 708.048 148.403 -9 60V609C1056.74 690.822 1371.37 690.495 1437 609V92.6487L1228.33 168.764C1218.79 172.245 1209.87 177.248 1201.93 183.581L1179.91 201.143L1117.39 226.759H1007.35Z" fill="#2F2FA2" fill-opacity="0.03"/>
<path d="M1002.46 287.032C948.329 318.528 702.536 190.692 -16 82V757C269.9 683.043 397.5 641.5 716 676.5C1034.5 711.5 1152.74 749.3 1433 757V122.142L1221.34 206.956C1205.73 213.211 1192.09 223.539 1181.83 236.863L1168.5 254.174L1112.73 287.032H1002.46Z" fill="#2F2FA2" fill-opacity="0.1"/>
<path d="M1009.35 203.513C866.5 187.5 710.048 107.887 -7 0V670C133.944 606.583 1279.5 791 1402.5 668.5C1525.5 546 1439 42.5 1439 42.5C1439 42.5 1328.59 99.2493 1243 158C1157.41 216.751 1152.2 219.526 1009.35 203.513Z" fill="#2F2FA2" fill-opacity="0.1"/>
</svg>
