<svg width="128" height="128" viewBox="0 0 128 128" fill="none" xmlns="http://www.w3.org/2000/svg">
<path d="M124.8 52.1C120.5 49.6 114.8 49.3 110 50.7C109.4 45.5 106 41 102 37.8L100.4 36.5L99 38.1C96.3 41.2 95.5 46.4 95.9 50.4C96.2 53.3 97.1 56.3 98.9 58.7C97.5 59.5 96 60.6 94.6 61.1C91.8 62.1 88.7 63.1 85.7 63.1H79V49H66V24H51V36H26V49H13V63H1.8L1.6 64.5C1.1 70.9 1.9 77.1 4.6 83L5.7 85.2L5.8 85.4C13.7 98.8 27.5 104.4 42.6 104.4C71.8 104.4 95.9 91.3 106.9 63.8C114.3 64.2 121.9 62 125.5 54.9L126.4 53.1L124.8 52.1ZM28 39H38V50H28V39ZM41.1 83.2C41.1 84.9 39.7 86.3 38 86.3C36.3 86.3 34.9 84.9 34.9 83.2C34.9 81.5 36.3 80.1 38 80.1C39.7 80.2 41.1 81.5 41.1 83.2ZM28 52H38V63H28V52ZM15 52H26V63H15V52ZM42.7 102.2C26.9 102.1 18.4 96.8 11.4 89.8C13.5 89.9 15.5 90 17.3 90C18.9 90 20.5 90 22 89.9C25.9 89.7 29.3 89.2 32.1 88.4C34.4 93.7 38.6 98.6 46.1 102.2H42.7ZM51 63H40V52H51V63ZM51 50H40V39H51V50ZM64 63H53V52H64V63ZM64 50H53V39H64V50ZM64 37H53V26H64V37ZM77 63H66V52H77V63ZM38.8 81.2C38.6 81.1 38.3 81 38 81C36.8 81 35.8 82 35.8 83.2C35.8 84.4 36.8 85.4 38 85.4C39.2 85.4 40.2 84.4 40.2 83.2C40.2 82.9 40.1 82.6 40 82.4C39.8 82.7 39.6 82.9 39.2 82.9C38.7 82.9 38.3 82.5 38.3 82C38.4 81.6 38.6 81.3 38.8 81.2Z" fill="#019BC6"/>
</svg>
