<svg width="128" height="128" viewBox="0 0 128 128" fill="none" xmlns="http://www.w3.org/2000/svg">
<path d="M40.53 77.82V50.74H42V55C42.1736 54.8113 42.334 54.6108 42.48 54.4C43.0807 53.1531 44.0243 52.1033 45.2004 51.3736C46.3764 50.6439 47.7361 50.2645 49.12 50.28C52.47 50.18 55.19 51.42 56.79 54.4C57.8081 56.2512 58.3683 58.3192 58.424 60.4311C58.4797 62.5431 58.0291 64.6377 57.11 66.54C55.62 69.88 51.94 71.54 48 70.93C46.7739 70.8256 45.5935 70.4158 44.5664 69.738C43.5393 69.0603 42.6983 68.1362 42.12 67.05V77.82H40.53ZM42 60.32C42.13 61.64 42.18 62.58 42.33 63.5C42.91 67.12 45.05 69.27 48.41 69.66C49.9877 69.9193 51.6065 69.6235 52.9905 68.823C54.3745 68.0225 55.4381 66.7668 56 65.27C56.6457 63.7303 56.9564 62.071 56.9116 60.402C56.8668 58.7331 56.4674 57.0928 55.74 55.59C55.1402 54.2484 54.1202 53.1384 52.8339 52.4276C51.5477 51.7168 50.0651 51.4439 48.61 51.65C47.2439 51.749 45.9425 52.2712 44.8869 53.144C43.8313 54.0168 43.0739 55.1968 42.72 56.52C42.4068 57.7717 42.1664 59.0405 42 60.32Z" fill="black"/>
<path d="M88.41 64.0002C88.1873 65.9068 87.2796 67.6677 85.8559 68.9552C84.4322 70.2428 82.5893 70.9695 80.67 71.0002C74.51 71.3102 71.62 67.2202 71.16 62.5002C70.8407 59.937 71.2569 57.3358 72.36 55.0002C73.1282 53.3981 74.3863 52.082 75.9522 51.2424C77.518 50.4029 79.3105 50.0834 81.07 50.3302C82.7428 50.472 84.3286 51.1364 85.6028 52.2294C86.8771 53.3223 87.7752 54.7885 88.17 56.4202C88.483 57.9063 88.7133 59.4086 88.86 60.9202H72.67C72.37 65.2002 74.67 68.6402 77.93 69.4702C81.99 70.4702 85.46 68.7102 86.72 64.8502C87 63.8602 87.51 63.7202 88.41 64.0002ZM72.67 59.5502H87.14C87.05 54.9902 84.21 51.6902 80.36 51.6402C76 51.5702 72.86 54.7502 72.67 59.5502Z" fill="black"/>
<path d="M91.39 64.1H92.81C92.8624 65.1449 93.202 66.1551 93.7912 67.0195C94.3804 67.884 95.1966 68.5693 96.15 69C97.3472 69.5388 98.6505 69.8006 99.9628 69.7659C101.275 69.7313 102.563 69.4012 103.73 68.8C104.366 68.5133 104.899 68.0384 105.256 67.4393C105.614 66.8403 105.779 66.1459 105.73 65.45C105.767 64.7788 105.583 64.114 105.208 63.5564C104.833 62.9988 104.286 62.5787 103.65 62.36C102.09 61.78 100.43 61.46 98.84 60.95C97.1856 60.4789 95.568 59.8873 94 59.18C91.44 57.93 91.28 53.06 94.18 51.52C95.6649 50.6821 97.3361 50.2293 99.0409 50.2031C100.746 50.1769 102.43 50.5781 103.94 51.37C104.855 51.8755 105.594 52.6479 106.058 53.5841C106.523 54.5203 106.691 55.5758 106.54 56.61H105.32C105.32 56.55 105.21 56.5 105.21 56.44C105.06 52.55 101.8 51.35 98.3 51.69C97.2552 51.8189 96.2404 52.1267 95.3 52.6C94.7351 52.8584 94.2642 53.2857 93.9526 53.8231C93.6409 54.3605 93.5037 54.9814 93.56 55.6C93.5617 56.219 93.7549 56.8222 94.1129 57.3271C94.471 57.8319 94.9764 58.2137 95.56 58.42C97.1 58.98 98.71 59.34 100.29 59.78C101.56 60.13 102.88 60.36 104.11 60.78C104.978 61.0646 105.739 61.6061 106.293 62.3329C106.847 63.0597 107.166 63.9375 107.21 64.85C107.358 65.8499 107.188 66.8711 106.723 67.7686C106.258 68.6662 105.522 69.3944 104.62 69.85C101.28 71.74 95.78 71.24 93.33 68.85C92.7091 68.2255 92.218 67.4843 91.885 66.669C91.552 65.8538 91.3838 64.9806 91.39 64.1Z" fill="black"/>
<path d="M125.21 56.6102H123.88C123.88 56.4302 123.81 56.2702 123.79 56.1202C123.768 55.1233 123.405 54.164 122.761 53.4031C122.116 52.6421 121.23 52.1257 120.25 51.9402C118.401 51.4098 116.429 51.5047 114.64 52.2102C113.933 52.413 113.31 52.8391 112.865 53.4248C112.42 54.0106 112.176 54.7246 112.17 55.4602C112.145 56.1827 112.37 56.8917 112.808 57.4674C113.245 58.0431 113.867 58.4503 114.57 58.6202C116.57 59.2402 118.62 59.6202 120.65 60.1802C121.308 60.3381 121.956 60.5351 122.59 60.7702C123.537 61.1091 124.36 61.7259 124.951 62.5399C125.543 63.354 125.874 64.3274 125.904 65.3331C125.933 66.3387 125.658 67.3297 125.115 68.1766C124.572 69.0236 123.786 69.687 122.86 70.0802C121.449 70.721 119.919 71.0601 118.37 71.0756C116.82 71.0911 115.284 70.7827 113.86 70.1702C112.689 69.6653 111.701 68.8138 111.029 67.7303C110.357 66.6469 110.033 65.3835 110.1 64.1102H110.66H111.4C111.64 65.2705 112.16 66.3547 112.914 67.2689C113.668 68.1831 114.633 68.8997 115.727 69.3567C116.82 69.8137 118.008 69.9973 119.188 69.8916C120.369 69.786 121.505 69.3942 122.5 68.7502C123.106 68.4354 123.609 67.9535 123.949 67.3615C124.29 66.7695 124.453 66.0923 124.42 65.4102C124.45 64.7386 124.26 64.0756 123.88 63.5215C123.499 62.9675 122.948 62.5528 122.31 62.3402C120.75 61.7602 119.09 61.4502 117.5 60.9402C115.836 60.4764 114.208 59.8915 112.63 59.1902C110.13 57.9602 109.93 53.1302 112.78 51.5902C114.283 50.7172 115.987 50.2482 117.726 50.2289C119.464 50.2096 121.178 50.6407 122.7 51.4802C123.571 52 124.271 52.7616 124.717 53.6724C125.163 54.5832 125.334 55.6039 125.21 56.6102Z" fill="black"/>
<path d="M38.1 70.5102C37.5764 70.7085 36.9984 70.7081 36.4751 70.5091C35.9518 70.3101 35.5195 69.9263 35.26 69.4302C33.63 66.9902 31.83 64.6602 30.1 62.2802L29.35 61.2802C27.29 64.0402 25.23 66.6902 23.35 69.4402C23.105 69.9143 22.6961 70.2832 22.1994 70.4782C21.7027 70.6732 21.152 70.681 20.65 70.5002L28.38 60.1302L21.19 50.7602C21.7076 50.5733 22.2737 50.5708 22.793 50.753C23.3122 50.9351 23.7527 51.2909 24.04 51.7602C25.71 54.2002 27.56 56.5302 29.4 59.0002C31.25 56.5502 33.08 54.2102 34.79 51.7902C35.0363 51.3238 35.4454 50.9642 35.9396 50.7799C36.4337 50.5955 36.9784 50.5992 37.47 50.7902L34.68 54.4902C33.43 56.1402 32.2 57.8002 30.9 59.4102C30.7952 59.504 30.7114 59.6188 30.6541 59.7472C30.5967 59.8756 30.5671 60.0146 30.5671 60.1552C30.5671 60.2958 30.5967 60.4348 30.6541 60.5632C30.7114 60.6916 30.7952 60.8064 30.9 60.9002C33.29 64.0702 35.66 67.2502 38.1 70.5102Z" fill="black"/>
<path d="M70.92 50.6602V52.0602C69.9086 51.9938 68.8945 52.1403 67.9432 52.4901C66.9919 52.84 66.1246 53.3854 65.3971 54.0912C64.6696 54.797 64.0982 55.6474 63.7198 56.5877C63.3414 57.528 63.1643 58.5372 63.2 59.5502C63.2 62.8435 63.2 66.1368 63.2 69.4302C63.2 69.7802 63.2 70.1302 63.2 70.5502H61.77V50.7402H63.17V54.8002C64.9 51.8402 67.57 50.7402 70.92 50.6602Z" fill="black"/>
<path d="M2.13 60.0001C2.34 59.0001 2.47 57.9101 2.76 56.8901C4.49 50.7401 11.54 48.1801 16.39 51.9901C19.23 54.2201 19.94 57.3801 19.8 60.9401H3.8C3.54 67.3001 8.13 71.1401 14 69.1801C14.9522 68.8395 15.8046 68.2671 16.4802 67.5147C17.1559 66.7622 17.6335 65.8534 17.87 64.8701C18.18 63.8701 18.68 63.7001 19.63 63.9901C19.4735 65.2075 19.0431 66.3736 18.371 67.4007C17.699 68.4278 16.8029 69.2892 15.75 69.9201C14.0104 70.8714 12.0146 71.2483 10.0478 70.9968C8.08114 70.7454 6.24431 69.8785 4.8 68.5201C3.37116 66.9136 2.50721 64.8836 2.34 62.7401C2.34 62.4001 2.21 62.0601 2.14 61.7401C2.13334 61.1468 2.13 60.5668 2.13 60.0001ZM3.82 59.5701H18.29C18.2 54.9601 15.29 51.6901 11.41 51.6601C7.09 51.6001 4 54.8001 3.81 59.5501L3.82 59.5701Z" fill="black"/>
</svg>
