<svg width="67" height="67" viewBox="0 0 67 67" fill="none" xmlns="http://www.w3.org/2000/svg">
<path fill-rule="evenodd" clip-rule="evenodd" d="M33.5 2.6709C16.0449 2.6709 1.89066 16.822 1.89066 34.2802C1.89066 48.2466 10.9477 60.0946 23.5071 64.2748C25.0863 64.5679 25.6662 63.5891 25.6662 62.7542C25.6662 62.0004 25.6369 59.5104 25.6233 56.8692C16.8296 58.7813 14.974 53.1397 14.974 53.1397C13.5361 49.4861 11.4643 48.5146 11.4643 48.5146C8.59589 46.5528 11.6805 46.5936 11.6805 46.5936C14.8541 46.816 16.526 49.8509 16.526 49.8509C19.3452 54.6823 23.9206 53.2857 25.7243 52.4786C26.008 50.4356 26.8272 49.0407 27.7312 48.2513C20.7103 47.4531 13.3293 44.7422 13.3293 32.6304C13.3293 29.1793 14.5646 26.3596 16.5867 24.1454C16.258 23.3498 15.176 20.1349 16.8924 15.7809C16.8924 15.7809 19.5462 14.9314 25.5867 19.021C28.1086 18.3201 30.8132 17.9678 33.5 17.9558C36.1852 17.9678 38.8914 18.3191 41.418 19.0199C47.4512 14.9303 50.1019 15.7799 50.1019 15.7799C51.8224 20.1333 50.7405 23.3488 50.4123 24.1444C52.439 26.3585 53.6654 29.1783 53.6654 32.6293C53.6654 44.7699 46.2708 47.4426 39.2322 48.2257C40.3665 49.2066 41.3767 51.1307 41.3767 54.0793C41.3767 58.3086 41.34 61.7126 41.34 62.7537C41.34 63.5948 41.9095 64.5805 43.5113 64.2701C56.0633 60.0857 65.1099 48.2414 65.1099 34.2802C65.1094 16.8231 50.9566 2.67142 33.5 2.67142V2.6709Z" fill="#553D67"/>
<path d="M13.8627 48.0546C13.7931 48.2116 13.546 48.2587 13.321 48.1514C13.0906 48.0488 12.9624 47.8348 13.0367 47.6772C13.1048 47.5149 13.3524 47.4705 13.5811 47.5788C13.8114 47.6819 13.9423 47.8981 13.8622 48.0551L13.8627 48.0546ZM15.143 49.4831C14.9928 49.6228 14.6981 49.5579 14.4982 49.3365C14.2909 49.1167 14.2522 48.822 14.4055 48.6801C14.5615 48.5409 14.8473 48.6068 15.0546 48.8267C15.2608 49.0497 15.3016 49.3417 15.1436 49.4836L15.143 49.4831ZM16.3899 51.3031C16.1962 51.4381 15.879 51.312 15.6832 51.0309C15.4896 50.7493 15.4896 50.4116 15.6885 50.2771C15.8837 50.1421 16.1962 50.264 16.3951 50.5425C16.5877 50.8278 16.5877 51.1654 16.3899 51.3025V51.3031ZM18.0968 53.0623C17.9241 53.2534 17.5545 53.2021 17.2844 52.9419C17.0086 52.687 16.9316 52.3243 17.1049 52.1338C17.2808 51.9422 17.6519 51.9956 17.9235 52.2542C18.1994 52.5085 18.2826 52.8718 18.0978 53.0618L18.0968 53.0623ZM20.4523 54.0836C20.3753 54.3311 20.0204 54.4437 19.6619 54.338C19.3044 54.2296 19.0704 53.9401 19.1437 53.6899C19.217 53.4403 19.5745 53.3235 19.9351 53.4361C20.2926 53.5439 20.5266 53.8318 20.4523 54.0836ZM23.0396 54.2725C23.0485 54.5332 22.7449 54.7489 22.3696 54.7541C21.9912 54.763 21.685 54.5515 21.6813 54.295C21.6813 54.0317 21.9786 53.8187 22.3565 53.8114C22.7318 53.8046 23.0401 54.0139 23.0401 54.272L23.0396 54.2725ZM25.4464 53.8632C25.4914 54.1171 25.2302 54.3783 24.857 54.4479C24.4906 54.5159 24.1504 54.3578 24.1032 54.1061C24.0582 53.8454 24.3241 53.5842 24.6905 53.5167C25.0643 53.4523 25.3993 53.6057 25.4464 53.8637V53.8632Z" fill="#553D67"/>
</svg>
