<svg width="50" height="50" viewBox="0 0 50 50" fill="none" xmlns="http://www.w3.org/2000/svg">
<path fill-rule="evenodd" clip-rule="evenodd" d="M25 1.99316C11.9738 1.99316 1.41095 12.5537 1.41095 25.5822C1.41095 36.0049 8.16993 44.8467 17.5426 47.9662C18.7211 48.185 19.1539 47.4545 19.1539 46.8314C19.1539 46.2689 19.132 44.4107 19.1219 42.4397C12.5594 43.8666 11.1746 39.6564 11.1746 39.6564C10.1016 36.9299 8.55548 36.2049 8.55548 36.2049C6.41486 34.7408 8.71681 34.7713 8.71681 34.7713C11.0852 34.9373 12.3328 37.2021 12.3328 37.2021C14.4367 40.8076 17.8512 39.7654 19.1973 39.1631C19.409 37.6385 20.0203 36.5975 20.6949 36.0084C15.4555 35.4127 9.94728 33.3896 9.94728 24.351C9.94728 21.7756 10.8692 19.6713 12.3781 18.0189C12.1328 17.4252 11.3254 15.026 12.6063 11.7768C12.6063 11.7768 14.5867 11.1428 19.0945 14.1947C20.9766 13.6717 22.9949 13.4088 25 13.3998C27.0039 13.4088 29.0234 13.6709 30.909 14.1939C35.4113 11.142 37.3895 11.776 37.3895 11.776C38.6735 15.0248 37.866 17.4244 37.6211 18.0182C39.1336 19.6705 40.0488 21.7748 40.0488 24.3502C40.0488 33.4104 34.5305 35.4049 29.2777 35.9893C30.1242 36.7213 30.8781 38.1572 30.8781 40.3576C30.8781 43.5139 30.8508 46.0541 30.8508 46.8311C30.8508 47.4588 31.2758 48.1943 32.4711 47.9627C41.8383 44.84 48.5895 36.001 48.5895 25.5822C48.5891 12.5545 38.0274 1.99355 25 1.99355V1.99316Z" fill="#553D67"/>
<path d="M10.3453 35.8617C10.2934 35.9789 10.109 36.0141 9.94104 35.934C9.76916 35.8574 9.67346 35.6977 9.72893 35.5801C9.77971 35.459 9.96447 35.4258 10.1352 35.5066C10.3071 35.5836 10.4047 35.7449 10.3449 35.8621L10.3453 35.8617ZM11.3008 36.9277C11.1887 37.032 10.9688 36.9836 10.8196 36.8184C10.6649 36.6543 10.636 36.4344 10.7504 36.3285C10.8668 36.2246 11.0801 36.2738 11.2348 36.4379C11.3887 36.6043 11.4192 36.8223 11.3012 36.9281L11.3008 36.9277ZM12.2313 38.2859C12.0867 38.3867 11.85 38.2926 11.7039 38.0828C11.5594 37.8727 11.5594 37.6207 11.7078 37.5203C11.8535 37.4195 12.0867 37.5105 12.2352 37.7184C12.3789 37.9312 12.3789 38.1832 12.2313 38.2855V38.2859ZM13.5051 39.5988C13.3762 39.7414 13.1004 39.7031 12.8988 39.509C12.693 39.3187 12.6356 39.048 12.7649 38.9059C12.8961 38.7629 13.1731 38.8027 13.3758 38.9957C13.5817 39.1855 13.6438 39.4566 13.5059 39.5984L13.5051 39.5988ZM15.2629 40.3609C15.2055 40.5457 14.9406 40.6297 14.6731 40.5508C14.4063 40.4699 14.2317 40.2539 14.2863 40.0672C14.341 39.8809 14.6078 39.7937 14.877 39.8777C15.1438 39.9582 15.3184 40.173 15.2629 40.3609ZM17.1938 40.502C17.2004 40.6965 16.9738 40.8574 16.6938 40.8613C16.4113 40.868 16.1828 40.7102 16.1801 40.5187C16.1801 40.3223 16.402 40.1633 16.684 40.1578C16.9641 40.1527 17.1942 40.309 17.1942 40.5016L17.1938 40.502ZM18.9899 40.1965C19.0235 40.3859 18.8285 40.5809 18.55 40.6328C18.2766 40.6836 18.0227 40.5656 17.9875 40.3777C17.9539 40.1832 18.1524 39.9883 18.4258 39.9379C18.7047 39.8898 18.9547 40.0043 18.9899 40.1969V40.1965Z" fill="#553D67"/>
</svg>
