<svg width="67" height="67" viewBox="0 0 67 67" fill="none" xmlns="http://www.w3.org/2000/svg">
<path d="M60.7188 1.57055H6.28125C5.0461 1.55798 3.85641 2.03591 2.97322 2.89947C2.09004 3.76303 1.5855 4.94168 1.57031 6.1768V60.8342C1.58824 62.0674 2.09399 63.2434 2.97688 64.1047C3.85976 64.966 5.04789 65.4425 6.28125 65.4299H60.7188C61.954 65.4397 63.1429 64.9602 64.0256 64.0961C64.9083 63.232 65.4131 62.0536 65.4297 60.8184V6.1611C65.4077 4.9296 64.9005 3.75657 64.0183 2.89697C63.1362 2.03738 61.9504 1.5607 60.7188 1.57055ZM20.503 56.0081H11.0236V25.5074H20.503V56.0081ZM15.7921 21.3513C14.7049 21.3523 13.6417 21.0308 12.7372 20.4275C11.8327 19.8243 11.1274 18.9662 10.7106 17.9621C10.2939 16.9579 10.1843 15.8526 10.3958 14.7861C10.6072 13.7197 11.1303 12.7399 11.8987 11.9707C12.6671 11.2015 13.6464 10.6776 14.7127 10.4651C15.779 10.2526 16.8843 10.3611 17.8889 10.7769C18.8935 11.1928 19.7522 11.8972 20.3563 12.8012C20.9605 13.7051 21.283 14.7679 21.283 15.8552C21.2816 16.5778 21.1377 17.2931 20.8596 17.9601C20.5815 18.627 20.1745 19.2326 19.6621 19.7421C19.1497 20.2517 18.5418 20.6551 17.8732 20.9294C17.2047 21.2038 16.4886 21.3435 15.7659 21.3408L15.7921 21.3513ZM56.0078 56.0081H46.5284V41.1686C46.5284 37.6354 46.4655 33.0867 41.6028 33.0867C36.7401 33.0867 35.913 36.9392 35.913 40.9383V56.0081H26.4493V25.5074H35.5362V29.6949H35.6618C36.9285 27.2975 40.0168 24.7693 44.6283 24.7693C54.2281 24.7484 56.0078 31.0663 56.0078 39.2581V56.0081Z" fill="#553D67"/>
</svg>
