<svg width="128" height="128" viewBox="0 0 128 128" fill="none" xmlns="http://www.w3.org/2000/svg">
<path d="M91.78 58.77L89.48 64.19H94.09L91.78 58.77Z" fill="#8D6748"/>
<path d="M60.91 52H64.91C65.1101 51.9762 65.2983 51.8926 65.45 51.76C67.77 49 68.1 43.6 68.1 41.7C68.1001 41.5178 68.0291 41.3427 67.9021 41.212C67.7751 41.0812 67.6021 41.0052 67.42 41H58.42C58.2396 41 58.0667 41.0716 57.9392 41.1992C57.8116 41.3267 57.74 41.4997 57.74 41.68C57.81 43.58 58.08 49.04 60.39 51.76C60.4526 51.8371 60.532 51.8988 60.6221 51.9404C60.7123 51.982 60.8107 52.0024 60.91 52ZM65.32 46.84C67 46.23 67 45.62 67 45.62C66.8116 47.5135 66.1212 49.3225 65 50.86C64.947 50.9138 64.8828 50.9552 64.8118 50.9811C64.7409 51.007 64.6652 51.0169 64.59 51.01H61.25C61.11 51.01 60.91 51.01 60.84 50.86C60.0062 49.7418 59.426 48.4552 59.14 47.09C59.14 47.09 63.08 47.65 65.32 46.84Z" fill="#8D6748"/>
<path d="M116.42 29.94L67.48 1.71998C66.4417 1.12052 65.2639 0.804932 64.065 0.804932C62.8661 0.804932 61.6883 1.12052 60.65 1.71998L11.6 29.94C10.5428 30.5149 9.65428 31.3564 9.02276 32.3809C8.39125 33.4053 8.03866 34.5771 8 35.78V92.22C8.04805 93.4169 8.40244 94.5814 9.02925 95.6021C9.65605 96.6229 10.5343 97.4657 11.58 98.05L60.52 126.27C61.5583 126.869 62.7361 127.185 63.935 127.185C65.1339 127.185 66.3117 126.869 67.35 126.27L116.4 98.06C117.441 97.468 118.316 96.6238 118.945 95.605C119.574 94.5863 119.937 93.4257 120 92.23V35.78C119.954 34.5814 119.6 33.4148 118.973 32.3922C118.346 31.3695 117.467 30.5251 116.42 29.94ZM112 88.29C111.995 89.3088 111.72 90.308 111.204 91.1863C110.688 92.0645 109.948 92.7903 109.06 93.29L66.86 117.66C65.9789 118.192 64.9692 118.473 63.94 118.473C62.9108 118.473 61.9011 118.192 61.02 117.66L18.87 93.31C17.9854 92.8126 17.2517 92.0854 16.7464 91.2052C16.2412 90.3251 15.9833 89.3247 16 88.31V39.58C15.9918 38.5669 16.2533 37.5698 16.7576 36.6912C17.262 35.8125 17.9911 35.0839 18.87 34.58L61 10.2C61.8769 9.66662 62.8836 9.38453 63.91 9.38453C64.9364 9.38453 65.9431 9.66662 66.82 10.2L109.03 34.55C109.922 35.0445 110.664 35.7694 111.179 36.649C111.695 37.5286 111.964 38.5305 111.96 39.55L112 88.29Z" fill="#8D6748"/>
<path d="M40 67.3699C42.6731 67.3699 44.84 65.203 44.84 62.5299C44.84 59.8569 42.6731 57.6899 40 57.6899C37.3269 57.6899 35.16 59.8569 35.16 62.5299C35.16 65.203 37.3269 67.3699 40 67.3699Z" fill="#8D6748"/>
<path d="M108.06 36.32L65.85 12C65.2711 11.657 64.6128 11.4709 63.94 11.46C63.2582 11.4742 62.5911 11.6599 62 12L19.87 36.32C19.2976 36.6666 18.8246 37.1555 18.4969 37.7389C18.1692 38.3224 17.9981 38.9808 18 39.65V88.35C17.9988 89.0177 18.1704 89.6743 18.4981 90.2561C18.8258 90.8378 19.2984 91.3249 19.87 91.67L62 116C62.5681 116.351 63.2223 116.538 63.89 116.54C64.5597 116.53 65.215 116.343 65.79 116L108.02 91.65C108.605 91.3151 109.094 90.8359 109.44 90.2582C109.787 89.6804 109.98 89.0234 110 88.35V39.65C109.989 38.9752 109.805 38.3147 109.465 37.7316C109.125 37.1485 108.641 36.6624 108.06 36.32ZM67 68.19C67.6944 68.1891 68.3804 68.0375 69.0106 67.7457C69.6407 67.4539 70.2001 67.0289 70.65 66.5L72.17 68C71.8428 68.367 71.4811 68.7019 71.09 69C70.7153 69.2986 70.3056 69.5504 69.87 69.75C69.4229 69.9769 68.9442 70.1354 68.45 70.22C67.847 70.3339 67.2333 70.3808 66.62 70.36C65.7138 70.3729 64.8142 70.2024 63.9756 69.8587C63.137 69.515 62.3765 69.0052 61.74 68.36C61.1513 67.715 60.708 66.9511 60.44 66.12C60.1217 65.2461 59.9724 64.3196 60 63.39V63.32C59.9631 62.3979 60.1057 61.4775 60.42 60.61C60.7408 59.7905 61.2009 59.0326 61.78 58.37C62.4059 57.7214 63.1626 57.2134 64 56.88C64.8998 56.5195 65.8607 56.3361 66.83 56.34C67.3958 56.3501 67.9603 56.3968 68.52 56.48C69.06 56.62 69.47 56.75 69.94 56.89C70.3459 57.0761 70.7313 57.304 71.09 57.57C71.4396 57.8442 71.7735 58.138 72.09 58.45L70.53 60.08C69.9848 59.4906 69.3012 59.0464 68.5411 58.7877C67.7811 58.5289 66.9685 58.4637 66.1769 58.598C65.3853 58.7322 64.6397 59.0617 64.0074 59.5566C63.3752 60.0515 62.8763 60.6962 62.5559 61.4323C62.2354 62.1685 62.1036 62.973 62.1722 63.7729C62.2409 64.5729 62.5078 65.3431 62.949 66.0139C63.3902 66.6848 63.9916 67.235 64.6989 67.615C65.4062 67.9949 66.1971 68.1925 67 68.19ZM64.17 30.56C63.83 31.03 64.24 32.19 65.12 33.56C65.3308 33.8819 65.4738 34.2434 65.5402 34.6224C65.6065 35.0015 65.5949 35.3901 65.506 35.7644C65.4171 36.1388 65.2527 36.4912 65.023 36.7999C64.7933 37.1086 64.5031 37.3672 64.17 37.56C64.1772 36.729 63.914 35.9182 63.42 35.25C61.8 32.79 63.29 31.64 64.17 30.56ZM61.46 33.07C61.19 33.34 61.46 34.16 62.07 35.07C62.2153 35.2857 62.315 35.5288 62.363 35.7844C62.4111 36.04 62.4064 36.3027 62.3493 36.5565C62.2921 36.8102 62.1838 37.0496 62.0309 37.26C61.878 37.4704 61.6837 37.6473 61.46 37.78C61.4621 37.2356 61.3019 36.7029 61 36.25C59.9 34.56 60.85 33.81 61.46 33.07ZM56.5 39H69.26C69.3465 38.9945 69.4332 39.0067 69.5149 39.0358C69.5965 39.0649 69.6714 39.1103 69.735 39.1692C69.7986 39.2281 69.8496 39.2994 69.8848 39.3786C69.92 39.4578 69.9388 39.5433 69.94 39.63C69.94 42 69.6 50 66.2 53.77C66.1423 53.8392 66.0706 53.8955 65.9896 53.9352C65.9086 53.9748 65.8201 53.9969 65.73 54H60C59.908 53.9914 59.8187 53.9639 59.7378 53.9191C59.6569 53.8744 59.5862 53.8134 59.53 53.74C56.16 49.88 55.83 42 55.83 39.66C55.83 39.5724 55.8474 39.4858 55.8812 39.4051C55.915 39.3243 55.9645 39.2511 56.0268 39.1897C56.0892 39.1283 56.1631 39.0799 56.2444 39.0473C56.3256 39.0147 56.4125 38.9986 56.5 39ZM21 49H55.35C55.35 49 55.42 49 55.42 50H21V49ZM55 63.32V63.39C55.0148 64.3148 54.8553 65.2341 54.53 66.1C54.1988 66.9371 53.7022 67.699 53.07 68.34C52.4432 68.9874 51.6866 69.4951 50.85 69.83C49.9546 70.2167 48.9849 70.4011 48.01 70.37C47.0381 70.3671 46.0751 70.184 45.17 69.83C44.3272 69.4957 43.564 68.9881 42.93 68.34C42.3067 67.7016 41.8261 66.938 41.52 66.1C41.1726 65.2389 40.996 64.3185 41 63.39V63.32C41.0058 62.3914 41.1855 61.4722 41.53 60.61C41.8664 59.7731 42.3661 59.0116 43 58.37C43.6309 57.7228 44.3906 57.2152 45.23 56.88C46.1288 56.4928 47.1019 56.3084 48.08 56.34C49.0552 56.3421 50.0216 56.5252 50.93 56.88C51.7727 57.2145 52.5358 57.7221 53.17 58.37C53.7746 59.0118 54.235 59.7755 54.52 60.61C54.8542 61.4736 55.0173 62.394 55 63.32ZM29.1 67H29L25 60.54V70H22V57H25L29.14 63.38L33.23 57H36V70H33V60.47L29.1 67ZM107 75H21V74H107V75ZM86 62V57H88V70H86V64H79V70H77V57H79V62H86ZM92.73 70L98.73 57H100.9L106.9 70H104.39L103 67H96.6L95.18 70H92.73ZM107 50H70.41C70.41 49 70.48 49 70.48 49H107V50Z" fill="#8D6748"/>
</svg>
