<svg width="128" height="128" viewBox="0 0 128 128" fill="none" xmlns="http://www.w3.org/2000/svg">
<path fill-rule="evenodd" clip-rule="evenodd" d="M63.409 100.219C65.201 101.701 67.302 102.333 69.57 102.45C70.508 102.499 71.473 102.453 72.396 102.285C73.86 102.019 75.32 101.685 76.744 101.256C79.644 100.381 82.15 98.869 84.021 96.427C85.087 95.035 85.962 93.53 86.524 91.866C86.988 90.493 87.424 89.106 87.771 87.701C88.045 86.594 88.181 85.451 88.347 84.32C88.458 83.572 88.525 82.816 88.594 82.061C88.706 80.836 88.823 79.613 88.904 78.385C88.961 77.531 88.959 76.673 88.992 75.818C89.003 75.557 89.045 75.298 89.07 75.039C89.091 74.798 89.213 74.715 89.459 74.719C90.323 74.732 91.189 74.754 92.052 74.715C93.019 74.672 93.993 74.63 94.945 74.471C96.299 74.244 97.646 73.957 98.973 73.611C100.541 73.2 101.98 72.465 103.366 71.629C104.978 70.654 106.45 69.511 107.641 68.038C108.68 66.756 109.172 65.27 108.921 63.649C108.557 61.294 106.578 59.751 104.277 59.646C103.443 59.608 102.597 59.696 101.767 59.801C100.762 59.929 99.772 60.155 98.77 60.304C98.078 60.408 97.377 60.454 96.687 60.526L96.668 60.436C97.958 57.999 99.302 55.59 100.522 53.12C101.459 51.224 102.259 49.261 103.086 47.311C104.456 44.083 105.549 40.756 106.455 37.373C107.322 34.135 108.064 30.862 108.299 27.502C108.393 26.161 108.458 24.814 108.449 23.471C108.443 22.399 108.327 21.326 108.22 20.258C108.098 19.034 107.728 17.874 107.216 16.758C106.542 15.286 105.495 14.079 104.394 12.933C103.513 12.015 102.543 11.179 101.582 10.343C100.211 9.151 98.669 8.198 97.069 7.353C95.25 6.393 93.339 5.641 91.345 5.133C90.139 4.826 88.907 4.555 87.687 4.312C87.251 4.224 86.811 4 86.372 4H78.104C77.805 4 77.509 4.196 77.208 4.229C75.229 4.45 73.273 4.844 71.373 5.434C70.663 5.653 70.015 5.525 69.34 5.462C68.822 5.414 68.313 5.281 67.795 5.255C65.824 5.157 63.851 5.015 61.879 5.036C59.991 5.056 58.122 5.368 56.295 5.886C54.766 6.322 53.269 6.851 51.897 7.656C51.311 8 50.845 7.935 50.238 7.761C48.197 7.172 46.143 6.62 44.072 6.157C42.781 5.868 41.452 5.722 40.133 5.586C38.868 5.454 37.596 5.376 36.324 5.349C35.082 5.322 33.832 5.323 32.595 5.433C30.626 5.608 28.695 6.008 26.817 6.654C24.732 7.372 22.82 8.411 21.097 9.775C19.347 11.16 17.943 12.849 16.816 14.78C15.627 16.817 14.81 18.998 14.304 21.287C14.029 22.528 14.13 23.804 13.941 25.064C13.883 25.454 14 25.846 14 26.238V31.723C14 32.087 13.893 32.452 13.939 32.818C14.052 33.697 14.013 34.583 14.162 35.456C14.396 36.838 14.607 38.215 14.891 39.587C15.288 41.504 15.667 43.419 16.107 45.327C16.427 46.716 16.774 48.097 17.155 49.47C17.735 51.568 18.301 53.669 18.958 55.742C19.569 57.669 20.265 59.568 20.96 61.468C21.922 64.096 23.07 66.639 24.45 69.075C25.645 71.186 27.008 73.163 28.838 74.788C30.045 75.86 31.386 76.683 32.947 77.095C34.175 77.417 35.425 77.456 36.68 77.199C38.137 76.901 39.428 76.273 40.575 75.334C40.707 75.227 40.85 75.144 41.007 75.342C41.601 76.094 42.395 76.596 43.226 77.029C45.468 78.199 47.911 78.55 50.392 78.692C50.994 78.726 51.6 78.64 52.205 78.624C53.386 78.591 54.532 78.361 55.659 78.035C56.251 77.864 56.828 77.646 57.43 77.444C57.461 78.085 57.501 78.701 57.521 79.318L57.604 82.681C57.62 83.193 57.64 83.705 57.687 84.215C57.809 85.529 57.928 86.843 58.085 88.153C58.193 89.056 58.307 89.965 58.519 90.847C58.947 92.625 59.525 94.356 60.261 96.035C60.982 97.681 62.021 99.072 63.409 100.219ZM59.818 83.451C59.747 81.872 59.694 80.292 59.659 78.712C59.617 76.77 59.603 74.827 59.576 72.885L59.571 72.811C58.584 73.404 57.611 74.052 56.582 74.587C55.375 75.214 54.065 75.577 52.708 75.68C51.645 75.76 50.566 75.833 49.508 75.749C47.772 75.608 46.036 75.337 44.482 74.481C43.852 74.134 43.194 73.711 42.759 73.158C41.718 71.829 42.217 70.15 43.787 69.342C44.872 68.782 46.056 68.549 47.232 68.277C48.253 68.041 49.271 67.772 50.268 67.447C51.254 67.124 51.876 66.324 52.491 65.539L53.465 64.287L52.294 64.165C51.132 64.057 50.023 63.736 48.963 63.266C48.057 62.865 48.043 62.821 47.377 63.543C46.267 64.748 45.187 65.983 44.098 67.209C43.297 68.111 42.502 69.018 41.703 69.923C40.915 70.818 40.175 71.763 39.324 72.595C38.062 73.831 36.54 74.574 34.724 74.49C33.559 74.436 32.493 74.028 31.533 73.361C29.554 71.983 28.221 70.053 27.006 68.028C25.451 65.432 24.256 62.667 23.235 59.827C22.528 57.863 21.817 55.898 21.201 53.906C20.53 51.741 19.941 49.551 19.362 47.359C18.924 45.706 18.536 44.039 18.166 42.369C17.745 40.47 17.341 38.566 16.984 36.654C16.743 35.363 16.604 34.053 16.409 32.754C16.146 31.001 16.098 29.234 16.194 27.475C16.279 25.89 16.506 24.31 16.732 22.736C17.045 20.558 17.763 18.503 18.795 16.562C19.428 15.373 20.211 14.292 21.118 13.288C22.608 11.639 24.411 10.448 26.417 9.553C27.818 8.928 29.299 8.553 30.808 8.258C33.048 7.822 35.308 7.84 37.568 7.886C38.556 7.907 39.541 8.086 40.528 8.185C42.654 8.396 44.737 8.844 46.794 9.395C48.294 9.797 49.763 10.319 51.249 10.771C51.397 10.816 51.616 10.812 51.739 10.733C53.754 9.417 55.955 8.549 58.298 8.052C59.187 7.864 60.105 7.781 61.014 7.723C62.118 7.654 63.233 7.588 64.335 7.653C65.66 7.729 66.981 7.924 68.298 8.104C68.938 8.192 69.562 8.413 70.202 8.473C70.51 8.502 70.835 8.279 71.159 8.203C72.813 7.82 74.46 7.395 76.129 7.094C77.371 6.87 78.641 6.764 79.903 6.692C81.313 6.611 82.731 6.552 84.139 6.62C85.919 6.706 87.686 6.959 89.43 7.365C91.592 7.868 93.664 8.598 95.635 9.612C97.108 10.371 98.507 11.249 99.768 12.329C100.594 13.038 101.44 13.737 102.185 14.527C103.105 15.501 104.043 16.474 104.621 17.721C105.056 18.662 105.366 19.636 105.452 20.665C105.558 21.946 105.687 23.231 105.676 24.514C105.665 25.74 105.497 26.965 105.379 28.189C105.108 30.977 104.503 33.705 103.766 36.397C103.159 38.62 102.447 40.819 101.677 42.993C100.968 44.996 100.149 46.962 99.322 48.921C98.711 50.369 98.052 51.802 97.338 53.202C95.984 55.854 94.576 58.479 92.947 60.979C92.666 61.41 92.399 61.852 92.125 62.293C92.836 62.772 93.641 62.941 94.451 63.029C95.222 63.112 96.008 63.163 96.778 63.105C98.011 63.013 99.24 62.837 100.466 62.666C101.68 62.496 102.869 62.151 104.117 62.242C105.361 62.333 106.253 63.279 106.168 64.445C106.114 65.183 105.775 65.816 105.285 66.357C102.97 68.911 100.064 70.459 96.74 71.222C95.477 71.512 94.175 71.661 92.882 71.782C91.781 71.884 90.666 71.901 89.561 71.86C88.749 71.83 87.944 71.644 87.114 71.524C87.03 72.283 86.951 73.074 86.855 73.862L86.468 76.885C86.351 77.843 86.26 78.805 86.139 79.763C86.021 80.693 85.874 81.618 85.75 82.547C85.635 83.412 85.55 84.282 85.42 85.146C85.223 86.47 85.034 87.797 84.775 89.111C84.465 90.681 83.991 92.201 83.214 93.618C82.268 95.347 80.927 96.664 79.219 97.639C77.459 98.644 75.534 99.167 73.585 99.605C72.203 99.916 70.782 99.966 69.383 99.839C66.958 99.62 64.888 98.583 63.323 96.702C61.83 94.907 60.819 92.851 60.458 90.522C60.284 89.415 60.16 88.299 60.062 87.183C59.95 85.94 59.876 84.696 59.818 83.451ZM62.544 67.497C62.559 68.327 62.473 69.157 62.477 69.987C62.494 73.85 62.522 77.714 62.555 81.578C62.561 82.209 62.592 82.842 62.637 83.472C62.732 84.792 62.826 86.113 62.954 87.429C63.046 88.364 63.171 89.296 63.318 90.224C63.528 91.537 64.126 92.707 64.804 93.826C65.388 94.788 66.149 95.604 67.15 96.168C68.852 97.125 70.683 97.205 72.529 96.853C73.776 96.616 75.002 96.233 76.212 95.838C77.406 95.449 78.485 94.814 79.39 93.937C80.239 93.115 80.841 92.112 81.247 91.005C82.034 88.859 82.281 86.598 82.606 84.356C82.728 83.516 82.834 82.674 82.945 81.833C83.072 80.876 83.2 79.92 83.322 78.963C83.414 78.249 83.496 77.536 83.583 76.823C83.708 75.799 83.839 74.776 83.958 73.752C84.049 72.96 84.125 72.165 84.207 71.371C84.311 70.356 84.422 69.344 84.513 68.327C84.581 67.557 84.553 66.772 84.69 66.015C84.941 64.628 85.597 63.448 86.827 62.684C87.341 62.366 87.923 62.156 88.493 61.886L88.395 61.737C87.868 61.053 87.328 60.38 86.811 59.688C85.999 58.602 85.415 57.391 84.828 56.174C84.272 55.02 83.592 53.928 83.007 52.787C81.986 50.797 80.946 48.812 80.005 46.785C78.822 44.235 77.89 41.597 77.597 38.773C77.472 37.579 77.44 36.385 77.683 35.202C78.07 33.312 79.056 31.834 80.716 30.82C82.256 29.88 83.971 29.576 85.728 29.481C86.818 29.422 87.915 29.47 89.046 29.47L89.009 29.279C88.305 27.807 87.648 26.31 86.877 24.874C85.791 22.846 84.399 21.018 82.851 19.321C81.705 18.066 80.462 16.902 79.101 15.871C77.763 14.858 76.353 13.953 74.848 13.214C73.054 12.331 71.184 11.649 69.224 11.214C67.339 10.796 65.444 10.54 63.51 10.519C61.862 10.501 60.224 10.577 58.618 10.948C56.194 11.509 53.977 12.507 52.05 14.123C50.973 15.026 50.032 16.039 49.211 17.167C48.244 18.492 47.466 19.926 46.8 21.427C45.886 23.488 45.259 25.631 44.829 27.835C44.615 28.935 44.447 30.042 44.276 31.149C44.216 31.538 44.212 31.933 44.176 32.378L44.908 31.997L45.622 31.677C48.039 30.572 50.542 29.861 53.232 29.942C54.376 29.976 55.468 30.203 56.486 30.704C58.436 31.666 59.576 33.301 60.072 35.369C60.414 36.797 60.649 38.253 60.877 39.706C61.055 40.84 61.238 41.986 61.258 43.13C61.287 44.802 61.203 46.478 61.112 48.149C61.035 49.573 60.738 50.974 60.24 52.303C59.336 54.719 58.328 57.096 57.387 59.498C57.076 60.292 56.837 61.113 56.544 61.986L57.732 61.987C57.876 61.99 58.023 61.994 58.162 62.027C59.243 62.282 60.182 62.772 60.951 63.604C61.979 64.708 62.517 66 62.544 67.497ZM41.897 56.042C41.283 54.588 40.914 53.071 40.803 51.504C40.699 50.03 40.874 48.564 41.026 47.096C41.172 45.675 41.296 44.247 41.338 42.821C41.409 40.474 41.251 38.133 41.139 35.788C41.072 34.392 41.234 32.979 41.358 31.58C41.47 30.32 41.61 29.057 41.849 27.815C42.248 25.731 42.779 23.677 43.534 21.686C44.249 19.798 45.073 17.961 46.233 16.306C47.03 15.17 47.932 14.111 48.799 13.001L48.541 12.909C45.718 12.013 42.848 11.311 39.895 11.006C38.5 10.861 37.099 10.777 35.7 10.693C35.27 10.668 34.834 10.726 34.403 10.767C33.336 10.87 32.255 10.91 31.205 11.11C29.418 11.45 27.703 12.022 26.116 12.953C24.69 13.789 23.493 14.868 22.49 16.164C21.383 17.595 20.636 19.213 20.101 20.937C19.469 22.972 19.167 25.067 19.086 27.18C19.015 29.033 18.98 30.896 19.3 32.742C19.537 34.115 19.696 35.504 19.958 36.873C20.316 38.738 20.7 40.6 21.144 42.446C21.777 45.09 22.411 47.736 23.162 50.348C23.88 52.849 24.689 55.328 25.569 57.778C26.287 59.777 27.118 61.739 27.993 63.674C28.563 64.935 29.253 66.149 29.977 67.329C30.746 68.583 31.622 69.773 32.808 70.683C34.307 71.831 35.466 72.01 36.99 70.749C37.642 70.21 38.193 69.542 38.761 68.907C39.662 67.899 40.532 66.861 41.43 65.848C42.573 64.559 43.73 63.283 44.879 61.998C45.122 61.727 45.357 61.447 45.593 61.173L45.2 60.83C43.775 59.458 42.669 57.868 41.897 56.042ZM85.238 17.639C86.172 18.734 87.076 19.861 87.91 21.033C89.524 23.301 90.814 25.749 91.765 28.369C92.185 29.524 92.521 30.69 92.371 31.953C92.267 32.838 92.274 33.735 92.197 34.625C92.132 35.365 92.014 36.101 91.919 36.839C91.775 37.951 91.567 39.061 91.505 40.178C91.445 41.242 91.508 42.316 91.575 43.381C91.642 44.464 91.788 45.542 91.887 46.622C91.999 47.849 92.151 49.073 92.185 50.302C92.213 51.31 92.123 52.323 92.036 53.331C91.931 54.544 91.624 55.718 91.166 56.843C90.843 57.637 90.458 58.405 90.095 59.199L90.241 59.353L90.463 59.525L90.688 59.125C92.576 56.148 94.256 53.057 95.709 49.848C96.647 47.782 97.521 45.686 98.363 43.578C99.674 40.297 100.713 36.925 101.514 33.484C101.874 31.94 102.15 30.372 102.394 28.804C102.585 27.578 102.743 26.338 102.779 25.101C102.816 23.789 102.744 22.467 102.623 21.159C102.532 20.171 102.288 19.177 101.67 18.372C100.674 17.079 99.6 15.843 98.279 14.864C97.166 14.041 96.056 13.194 94.863 12.502C92.97 11.403 90.921 10.673 88.78 10.175C86.689 9.688 84.573 9.478 82.443 9.433C81.187 9.406 79.925 9.541 78.672 9.66C77.536 9.766 76.407 9.948 75.264 10.098C76.491 10.788 77.702 11.402 78.842 12.125C81.242 13.645 83.394 15.474 85.238 17.639ZM54.058 60.202C54.833 57.722 55.89 55.352 56.913 52.97C57.744 51.037 58.197 49.002 58.348 46.91C58.423 45.879 58.403 44.835 58.352 43.801C58.295 42.653 58.204 41.5 58.036 40.363C57.821 38.909 57.577 37.454 57.233 36.027C56.86 34.483 55.92 33.407 54.308 33.01C53.327 32.769 52.351 32.779 51.358 32.936C48.935 33.317 46.717 34.21 44.651 35.518C44.235 35.781 44.005 35.994 44.078 36.589C44.23 37.853 44.263 39.137 44.257 40.412C44.249 42.217 44.172 44.022 44.104 45.826C44.082 46.413 43.997 46.999 43.933 47.584C43.837 48.48 43.65 49.375 43.656 50.27C43.662 51.192 43.756 52.135 43.98 53.028C44.691 55.86 46.195 58.176 48.662 59.811C50.179 60.817 51.857 61.323 53.7 61.42C53.822 60.997 53.935 60.598 54.058 60.202ZM51.162 35.913C50.837 35.232 51.023 34.667 51.775 34.405C51.959 34.342 52.147 34.272 52.337 34.254C52.6 34.228 52.865 34.247 53.13 34.247C54.085 34.253 55.003 34.386 55.79 34.992C56.296 35.382 56.432 35.897 56.104 36.429C55.639 37.182 54.932 37.56 54.062 37.632C52.693 37.745 51.732 37.107 51.162 35.913ZM89.137 35.664L89.448 32.939C89.493 32.575 89.302 32.475 88.996 32.466C88.033 32.44 87.071 32.405 86.108 32.389C85.024 32.369 83.967 32.543 82.963 32.955C81.849 33.414 81.001 34.148 80.654 35.361C80.395 36.265 80.326 37.168 80.418 38.113C80.557 39.554 80.877 40.952 81.381 42.293C82.055 44.086 82.759 45.878 83.602 47.596C84.743 49.921 86.033 52.173 87.245 54.463C87.568 55.074 87.842 55.713 88.179 56.426C88.886 54.93 89.23 53.432 89.269 51.888C89.302 50.587 89.199 49.283 89.123 47.982C89.076 47.186 88.963 46.394 88.886 45.6C88.779 44.494 88.615 43.387 88.589 42.278C88.564 41.15 88.644 40.016 88.74 38.889C88.83 37.811 89.008 36.74 89.137 35.664ZM86.968 34.79C86.61 35.777 85.846 36.335 84.854 36.498C83.93 36.651 83.12 36.31 82.518 35.572C82.089 35.047 82.253 34.426 82.896 34.07C83.634 33.662 84.445 33.559 85.402 33.497C85.663 33.544 86.053 33.585 86.425 33.69C86.964 33.842 87.164 34.25 86.968 34.79ZM58.37 65.193C57.842 64.761 57.142 64.736 56.64 65.21C56.016 65.8 55.467 66.474 54.918 67.138C54.285 67.906 53.689 68.704 52.873 69.299C51.684 70.164 50.295 70.522 48.901 70.861C47.793 71.131 46.679 71.382 45.568 71.64L45.554 71.784C45.884 71.936 46.203 72.127 46.548 72.236C48.243 72.772 49.968 73.04 51.76 72.888C53.052 72.777 54.284 72.495 55.451 71.942C57.058 71.181 58.295 69.974 59.346 68.572C59.522 68.338 59.602 67.992 59.622 67.69C59.693 66.624 59.152 65.831 58.37 65.193ZM89.315 64.731C88.484 65.01 87.808 65.435 87.607 66.334C87.47 66.942 87.42 67.571 87.367 68.194C87.357 68.304 87.494 68.506 87.598 68.534C88.238 68.703 88.882 68.902 89.536 68.961C90.341 69.034 91.159 69.011 91.969 68.971C92.843 68.927 93.723 68.87 94.585 68.726C96.614 68.384 98.579 67.83 100.323 66.678C100.953 66.263 101.575 65.839 102.201 65.417L102.149 65.328C101.482 65.427 100.817 65.548 100.147 65.619C98.783 65.765 97.418 65.919 96.049 65.998C95.388 66.036 94.718 65.909 94.052 65.855C92.934 65.764 91.842 65.516 90.897 64.918C90.352 64.574 89.896 64.536 89.315 64.731Z" fill="#336791"/>
<path d="M2.83499 103.184C3.92799 103.002 5.35699 102.846 7.17799 102.846C9.41299 102.846 11.052 103.366 12.092 104.302C13.054 105.134 13.626 106.408 13.626 107.969C13.626 109.555 13.157 110.803 12.273 111.713C11.077 112.987 9.12699 113.637 6.91699 113.637C6.24099 113.637 5.61699 113.611 5.09799 113.481V120.502H2.83499V103.184ZM5.09799 111.634C5.59199 111.764 6.21599 111.816 6.96999 111.816C9.69899 111.816 11.364 110.49 11.364 108.072C11.364 105.758 9.72599 104.64 7.22999 104.64C6.24199 104.64 5.48799 104.718 5.09799 104.822V111.634ZM27.328 114.104C27.328 118.758 24.103 120.787 21.061 120.787C17.655 120.787 15.029 118.291 15.029 114.312C15.029 110.1 17.785 107.63 21.269 107.63C24.884 107.629 27.328 110.256 27.328 114.104ZM17.344 114.234C17.344 116.99 18.93 119.07 21.166 119.07C23.35 119.07 24.987 117.016 24.987 114.182C24.987 112.05 23.922 109.346 21.217 109.346C18.512 109.346 17.344 111.842 17.344 114.234ZM29.901 118.16C30.577 118.602 31.773 119.07 32.917 119.07C34.581 119.07 35.361 118.238 35.361 117.198C35.361 116.106 34.712 115.508 33.021 114.884C30.759 114.078 29.693 112.83 29.693 111.322C29.693 109.294 31.331 107.63 34.035 107.63C35.309 107.63 36.428 107.994 37.13 108.41L36.558 110.074C36.064 109.762 35.154 109.346 33.984 109.346C32.632 109.346 31.878 110.126 31.878 111.062C31.878 112.102 32.633 112.57 34.271 113.194C36.455 114.026 37.573 115.118 37.573 116.99C37.573 119.2 35.857 120.76 32.867 120.76C31.489 120.76 30.215 120.422 29.331 119.902L29.901 118.16ZM43.266 104.301V107.915H46.541V109.657H43.266V116.443C43.266 118.003 43.707 118.887 44.982 118.887C45.58 118.887 46.022 118.809 46.308 118.731L46.412 120.447C45.971 120.629 45.268 120.759 44.385 120.759C43.319 120.759 42.46 120.421 41.914 119.797C41.265 119.121 41.03 118.003 41.03 116.521V109.657H39.08V107.915H41.03V104.899L43.266 104.301ZM59.802 107.916C59.749 108.826 59.698 109.84 59.698 111.374V118.68C59.698 121.566 59.126 123.334 57.904 124.427C56.682 125.571 54.914 125.935 53.328 125.935C51.82 125.935 50.156 125.571 49.141 124.895L49.713 123.153C50.545 123.673 51.845 124.141 53.405 124.141C55.745 124.141 57.461 122.919 57.461 119.747V118.343H57.409C56.707 119.513 55.355 120.449 53.405 120.449C50.285 120.449 48.049 117.797 48.049 114.312C48.049 110.048 50.831 107.63 53.717 107.63C55.902 107.63 57.098 108.774 57.644 109.814H57.696L57.8 107.916H59.802ZM57.436 112.882C57.436 112.492 57.41 112.154 57.306 111.842C56.89 110.516 55.772 109.424 54.108 109.424C51.923 109.424 50.364 111.27 50.364 114.182C50.364 116.652 51.612 118.706 54.082 118.706C55.486 118.706 56.76 117.822 57.254 116.366C57.384 115.976 57.437 115.534 57.437 115.144V112.882H57.436ZM63.337 111.842C63.337 110.36 63.311 109.086 63.233 107.916H65.236L65.313 110.386H65.417C65.989 108.696 67.367 107.63 68.901 107.63C69.161 107.63 69.342 107.656 69.55 107.708V109.866C69.317 109.814 69.082 109.788 68.771 109.788C67.159 109.788 66.014 111.01 65.703 112.726C65.651 113.038 65.599 113.402 65.599 113.792V120.5H63.337V111.842ZM72.854 114.624C72.906 117.718 74.881 118.992 77.169 118.992C78.808 118.992 79.795 118.706 80.653 118.342L81.043 119.98C80.237 120.344 78.859 120.76 76.857 120.76C72.983 120.76 70.669 118.212 70.669 114.416C70.669 110.62 72.905 107.629 76.571 107.629C80.679 107.629 81.771 111.243 81.771 113.557C81.771 114.025 81.719 114.389 81.693 114.623H72.854V114.624ZM79.562 112.986C79.587 111.53 78.963 109.268 76.39 109.268C74.076 109.268 73.062 111.4 72.879 112.986H79.562ZM84.371 117.744C85.385 118.368 86.867 118.888 88.427 118.888C90.741 118.888 92.093 117.666 92.093 115.898C92.093 114.26 91.157 113.324 88.791 112.414C85.931 111.4 84.163 109.918 84.163 107.448C84.163 104.718 86.425 102.69 89.831 102.69C91.625 102.69 92.925 103.106 93.705 103.548L93.081 105.394C92.509 105.082 91.339 104.562 89.753 104.562C87.361 104.562 86.451 105.992 86.451 107.188C86.451 108.826 87.516 109.632 89.935 110.568C92.899 111.713 94.407 113.142 94.407 115.716C94.407 118.42 92.405 120.76 88.271 120.76C86.581 120.76 84.735 120.266 83.798 119.642L84.371 117.744ZM111.957 123.074C109.591 122.45 107.277 121.748 105.249 121.046C104.885 120.916 104.521 120.786 104.183 120.786C100.023 120.63 96.461 117.562 96.461 111.92C96.461 106.304 99.893 102.69 104.625 102.69C109.383 102.69 112.478 106.382 112.478 111.556C112.478 116.054 110.398 118.94 107.486 119.954V120.058C109.228 120.5 111.126 120.916 112.608 121.176L111.957 123.074ZM110.085 111.66C110.085 108.15 108.266 104.535 104.547 104.535C100.725 104.535 98.853 108.071 98.879 111.868C98.853 115.586 100.907 118.94 104.443 118.94C108.058 118.94 110.085 115.664 110.085 111.66ZM115.414 102.976H117.677V118.602H125.165V120.5H115.414V102.976Z" fill="#336791"/>
</svg>
