<svg width="128" height="128" viewBox="0 0 128 128" fill="none" xmlns="http://www.w3.org/2000/svg">
<path d="M101.84 41.72V86L64.18 108.32L63.84 108.63V125.2L64.18 125.52L117.18 94.88V33.12L116.68 33L101.68 41.36L101.76 41.72" fill="#2F406A"/>
<path d="M26.4 86.3999L64.18 108.32V125.52L10.78 94.7599V33.2399L11.33 33.1599L26.24 41.8299L26.4 42.3299V86.3999Z" fill="#2379BD"/>
<path d="M26.4 42.32L10.78 33.24L64.06 2.47998L117.22 33.12L101.84 41.72L64.06 20.16L26.4 42.32Z" fill="#03AFEF"/>
<path d="M63.53 81.3301L63.12 80.9101V64.2701L63.53 64.0601L63.63 63.6501L77.9 55.3301L78.34 55.4301V72.5801L63.54 81.3401" fill="#2F406A"/>
<path d="M48.48 73.1101V55.3H48.89L63.4 63.75L63.52 64.0801V81.3301L48.48 73.1101Z" fill="#2379BD"/>
<path d="M63.29 46.54L48.48 55.3L63.53 64.06L78.33 55.42L63.29 46.54Z" fill="#03AFEF"/>
<path d="M45.11 92.1899L44.7 91.7699V75.1299L45.11 74.9199L45.21 74.5099L59.48 66.1899L59.92 66.2899V83.4299L45.12 92.1899" fill="#2F406A"/>
<path d="M30.06 83.9999V66.1599H30.47L45 74.5899L45.12 74.9199V92.1899L30.06 83.9999Z" fill="#2379BD"/>
<path d="M44.86 57.3999L30.06 66.1599L45.11 74.9199L59.91 66.2799L44.86 57.3999Z" fill="#03AFEF"/>
<path d="M83.27 92.6001L82.86 92.1801V75.5401L83.27 75.3301L83.37 74.9201L97.64 66.6001L98.08 66.7001V83.8401L83.27 92.6001Z" fill="#2F406A"/>
<path d="M68.22 84.3801V66.5701H68.63L83.15 75.0001L83.27 75.3301V92.6001L68.22 84.3801Z" fill="#2379BD"/>
<path d="M83 57.8101L68.2 66.5701L83.25 75.3301L98.05 66.6901L83 57.8101Z" fill="#03AFEF"/>
<path d="M64.85 103.46L64.44 103.04V86.4L64.85 86.19L64.95 85.78L79.22 77.46L79.66 77.56V94.7L64.86 103.46" fill="#2F406A"/>
<path d="M49.8 95.2299V77.4299H50.21L64.72 85.8799L64.84 86.2099V103.48L49.8 95.2299Z" fill="#2379BD"/>
<path d="M64.6 68.6699L49.8 77.4299L64.85 86.1899L79.65 77.5499L64.6 68.6699Z" fill="#03AFEF"/>
<path d="M63.53 57.73L63.12 57.31V40.67L63.53 40.46L63.63 40.05L77.9 31.72L78.34 31.82V49L63.54 57.76" fill="#2F406A"/>
<path d="M48.48 49.5V31.7H48.89L63.4 40.15L63.52 40.4799V57.7299L48.48 49.5Z" fill="#2379BD"/>
<path d="M63.29 22.9399L48.48 31.6999L63.53 40.4599L78.33 31.8199L63.29 22.9399Z" fill="#03AFEF"/>
<path d="M45.11 68.5901L44.7 68.1701V51.5301L45.11 51.3201L45.21 50.9101L59.48 42.5901L59.92 42.6901V59.8301L45.12 68.5901" fill="#2F406A"/>
<path d="M30.06 60.3601V42.55H30.47L45 51L45.12 51.3301V68.59L30.06 60.3601Z" fill="#2379BD"/>
<path d="M44.86 33.8L30.06 42.5601L45.11 51.32L59.91 42.68L44.86 33.8Z" fill="#03AFEF"/>
<path d="M83.27 69L82.86 68.58V51.94L83.27 51.73L83.37 51.32L97.64 43L98.08 43.1V60.24L83.27 69Z" fill="#2F406A"/>
<path d="M68.22 60.77V43H68.63L83.14 51.45L83.26 51.78V69L68.22 60.77Z" fill="#2379BD"/>
<path d="M83 34.21L68.22 43L83.27 51.76L98.07 43.12L83 34.21Z" fill="#03AFEF"/>
<path d="M64.85 79.8501L64.44 79.4301V62.7901L64.85 62.5801L64.95 62.1701L79.22 53.8501L79.66 53.9501V71.0901L64.86 79.8501" fill="#2F406A"/>
<path d="M49.8 71.6301V53.8201H50.21L64.72 62.2701L64.84 62.6001V79.8501L49.8 71.6301Z" fill="#2379BD"/>
<path d="M64.6 45.0601L49.8 53.8201L64.85 62.5801L79.65 53.9401L64.6 45.0601Z" fill="#03AFEF"/>
</svg>
